<svg width="1280" height="720" xmlns="http://www.w3.org/2000/svg" xmlns:xlink="http://www.w3.org/1999/xlink" overflow="hidden"><defs><clipPath id="clip0"><rect x="0" y="0" width="1280" height="720"/></clipPath></defs><g clip-path="url(#clip0)"><rect x="0" y="0" width="1280" height="720" fill="#FFFFFF"/><path d="M86.5001 332.5C86.5001 329.186 89.1863 326.5 92.5001 326.5 95.8138 326.5 98.5001 329.186 98.5001 332.5 98.5001 335.814 95.8138 338.5 92.5001 338.5 89.1863 338.5 86.5001 335.814 86.5001 332.5Z" stroke="#44546A" stroke-width="1.33333" stroke-miterlimit="8" fill="#44546A" fill-rule="evenodd"/><path d="M154.5 275C154.5 271.962 157.186 269.5 160.5 269.5 163.814 269.5 166.5 271.962 166.5 275 166.5 278.038 163.814 280.5 160.5 280.5 157.186 280.5 154.5 278.038 154.5 275Z" stroke="#44546A" stroke-width="1.33333" stroke-miterlimit="8" fill="#44546A" fill-rule="evenodd"/><path d="M71.5001 237.5C71.5001 234.186 74.1863 231.5 77.5001 231.5 80.8138 231.5 83.5001 234.186 83.5001 237.5 83.5001 240.814 80.8138 243.5 77.5001 243.5 74.1863 243.5 71.5001 240.814 71.5001 237.5Z" stroke="#44546A" stroke-width="1.33333" stroke-miterlimit="8" fill="#44546A" fill-rule="evenodd"/><path d="M158.5 202.5C158.5 199.186 161.186 196.5 164.5 196.5 167.814 196.5 170.5 199.186 170.5 202.5 170.5 205.814 167.814 208.5 164.5 208.5 161.186 208.5 158.5 205.814 158.5 202.5Z" stroke="#44546A" stroke-width="1.33333" stroke-miterlimit="8" fill="#44546A" fill-rule="evenodd"/><path d="M166.5 353.5C166.5 350.186 169.186 347.5 172.5 347.5 175.814 347.5 178.5 350.186 178.5 353.5 178.5 356.814 175.814 359.5 172.5 359.5 169.186 359.5 166.5 356.814 166.5 353.5Z" stroke="#44546A" stroke-width="1.33333" stroke-miterlimit="8" fill="#44546A" fill-rule="evenodd"/><path d="M0 0 59.5329 48.8109" stroke="#44546A" stroke-width="0.666667" stroke-miterlimit="8" fill="none" fill-rule="evenodd" transform="matrix(1 0 0 -1 96.5001 328.311)"/><path d="M160.5 280.5 172.281 347.313" stroke="#44546A" stroke-width="0.666667" stroke-miterlimit="8" fill="none" fill-rule="evenodd"/><path d="M156.535 270.603 81.5001 241.5" stroke="#44546A" stroke-width="0.666667" stroke-miterlimit="8" fill="none" fill-rule="evenodd"/><path d="M0 0 78.5574 26.5481" stroke="#44546A" stroke-width="0.666667" stroke-miterlimit="8" fill="none" fill-rule="evenodd" transform="matrix(1 0 0 -1 81.5001 233.048)"/><rect x="177.5" y="188.5" width="27" height="8" stroke="#000000" stroke-width="1.33333" stroke-miterlimit="8" fill="#FFE699"/><rect x="130.5" y="170.5" width="27" height="9" stroke="#000000" stroke-width="1.33333" stroke-miterlimit="8" fill="#F8CBAD"/><rect x="130.5" y="179.5" width="27" height="8" stroke="#000000" stroke-width="1.33333" stroke-miterlimit="8" fill="#9DC3E6"/><rect x="130.5" y="187.5" width="27" height="8" stroke="#000000" stroke-width="1.33333" stroke-miterlimit="8" fill="#767171"/><path d="M88.1072 328.049 71.5001 316.5" stroke="#44546A" stroke-width="0.666667" stroke-miterlimit="8" stroke-dasharray="5.33333 2 0.666667 2 0.666667 2" fill="none" fill-rule="evenodd"/><path d="M0 0 9.02478 26.3339" stroke="#44546A" stroke-width="0.666667" stroke-miterlimit="8" stroke-dasharray="5.33333 2 0.666667 2 0.666667 2" fill="none" fill-rule="evenodd" transform="matrix(-1 0 0 1 88.5248 336.5)"/><path d="M51.5001 222.5 73.13 233.884" stroke="#44546A" stroke-width="0.666667" stroke-miterlimit="8" stroke-dasharray="5.33333 2 0.666667 2 0.666667 2" fill="none" fill-rule="evenodd"/><path d="M0 0 6.05092 23.5001" stroke="#44546A" stroke-width="0.666667" stroke-miterlimit="8" stroke-dasharray="5.33333 2 0.666667 2 0.666667 2" fill="none" fill-rule="evenodd" transform="matrix(-1 0 0 1 174.551 175.5)"/><path d="M178.967 215.098 168.5 206.5" stroke="#44546A" stroke-width="0.666667" stroke-miterlimit="8" stroke-dasharray="5.33333 2 0.666667 2 0.666667 2" fill="none" fill-rule="evenodd"/><path d="M189.003 364.004 178.5 353.5" stroke="#44546A" stroke-width="0.666667" stroke-miterlimit="8" stroke-dasharray="5.33333 2 0.666667 2 0.666667 2" fill="none" fill-rule="evenodd"/><path d="M173.412 376.152 172.5 359.5" stroke="#44546A" stroke-width="0.666667" stroke-miterlimit="8" stroke-dasharray="5.33333 2 0.666667 2 0.666667 2" fill="none" fill-rule="evenodd"/><text font-family="Cambria Math,Cambria Math_MSFontService,sans-serif" font-weight="400" font-size="24" transform="translate(65.9257 225)">ğ‘…<tspan font-size="18" x="14.92" y="5">2</tspan><tspan font-size="24" x="116.485" y="-2">ğ‘…</tspan><tspan font-size="18" x="130.852" y="2">1</tspan><tspan font-size="24" x="105.594" y="72">ğ‘…</tspan><tspan font-size="18" x="120.514" y="77">3</tspan><tspan font-size="24" x="77.8509" y="139">ğ‘…</tspan><tspan font-size="18" x="92.7709" y="143">4</tspan><tspan font-size="24" x="15.4379" y="93">ğ‘…</tspan><tspan font-size="18" x="30.3579" y="98">5</tspan></text><rect x="68.5001" y="250.5" width="27" height="7.99998" stroke="#000000" stroke-width="1.33333" stroke-miterlimit="8" fill="#00B0F0"/><rect x="31.5001" y="245.5" width="26" height="8" stroke="#000000" stroke-width="1.33333" stroke-miterlimit="8" fill="#FFF2CC"/><rect x="31.5001" y="253.5" width="26" height="7.99998" stroke="#000000" stroke-width="1.33333" stroke-miterlimit="8" fill="#9DC3E6"/><rect x="31.5001" y="261.5" width="26" height="8" stroke="#000000" stroke-width="1.33333" stroke-miterlimit="8" fill="#767171"/><rect x="170.5" y="262.5" width="27" height="8" stroke="#000000" stroke-width="1.33333" stroke-miterlimit="8" fill="#C5E0B4"/><rect x="139.5" y="234.5" width="27" height="8" stroke="#000000" stroke-width="1.33333" stroke-miterlimit="8" fill="#EDEDED"/><rect x="139.5" y="242.5" width="27" height="8" stroke="#000000" stroke-width="1.33333" stroke-miterlimit="8" fill="#92D050"/><rect x="139.5" y="250.5" width="27" height="7.99998" stroke="#000000" stroke-width="1.33333" stroke-miterlimit="8" fill="#DEEBF7"/><rect x="180.5" y="336.5" width="27" height="8" stroke="#000000" stroke-width="1.33333" stroke-miterlimit="8" fill="#FBE5D6"/><rect x="136.5" y="312.5" width="27" height="8" stroke="#000000" stroke-width="1.33333" stroke-miterlimit="8" fill="#2F5597"/><rect x="136.5" y="320.5" width="27" height="8" stroke="#000000" stroke-width="1.33333" stroke-miterlimit="8" fill="#9DC3E6"/><rect x="136.5" y="328.5" width="27" height="8" stroke="#000000" stroke-width="1.33333" stroke-miterlimit="8" fill="#FFC000"/><rect x="92.5001" y="343.5" width="27" height="8" stroke="#000000" stroke-width="1.33333" stroke-miterlimit="8" fill="#ADB9CA"/><rect x="49.5001" y="328.5" width="27" height="8" stroke="#000000" stroke-width="1.33333" stroke-miterlimit="8" fill="#F8CBAD"/><rect x="49.5001" y="336.5" width="27" height="8" stroke="#000000" stroke-width="1.33333" stroke-miterlimit="8" fill="#FFFF00"/><rect x="49.5001" y="344.5" width="27" height="8" stroke="#000000" stroke-width="1.33333" stroke-miterlimit="8" fill="#7030A0"/><path d="M294.5 138.167C294.5 127.858 302.858 119.5 313.167 119.5L387.833 119.5C398.143 119.5 406.5 127.858 406.5 138.167L406.5 408.833C406.5 419.143 398.143 427.5 387.833 427.5L313.167 427.5C302.858 427.5 294.5 419.143 294.5 408.833Z" stroke="#2F528F" stroke-width="1.33333" stroke-miterlimit="8" fill="#E7E6E6" fill-rule="evenodd"/><text font-family="Calibri,Calibri_MSFontService,sans-serif" font-weight="400" font-size="16" transform="translate(323.147 259)">PG-<tspan font-size="16" x="23.3333" y="0">GNN </tspan><tspan font-size="16" x="-6.66666" y="19">(3D</tspan><tspan font-size="16" x="16.1667" y="19">-</tspan><tspan font-size="16" x="21" y="19">aware </tspan><tspan font-size="16" x="9.24667" y="38">GNN)</tspan></text><path d="M519.5 333C519.5 329.41 522.186 326.5 525.5 326.5 528.814 326.5 531.5 329.41 531.5 333 531.5 336.59 528.814 339.5 525.5 339.5 522.186 339.5 519.5 336.59 519.5 333Z" stroke="#44546A" stroke-width="1.33333" stroke-miterlimit="8" fill="#44546A" fill-rule="evenodd"/><path d="M590.5 273C590.5 269.41 593.41 266.5 597 266.5 600.59 266.5 603.5 269.41 603.5 273 603.5 276.59 600.59 279.5 597 279.5 593.41 279.5 590.5 276.59 590.5 273Z" stroke="#44546A" stroke-width="1.33333" stroke-miterlimit="8" fill="#44546A" fill-rule="evenodd"/><path d="M502.5 233.5C502.5 230.186 505.41 227.5 509 227.5 512.59 227.5 515.5 230.186 515.5 233.5 515.5 236.814 512.59 239.5 509 239.5 505.41 239.5 502.5 236.814 502.5 233.5Z" stroke="#44546A" stroke-width="1.33333" stroke-miterlimit="8" fill="#44546A" fill-rule="evenodd"/><path d="M594.5 197C594.5 193.41 597.186 190.5 600.5 190.5 603.814 190.5 606.5 193.41 606.5 197 606.5 200.59 603.814 203.5 600.5 203.5 597.186 203.5 594.5 200.59 594.5 197Z" stroke="#44546A" stroke-width="1.33333" stroke-miterlimit="8" fill="#44546A" fill-rule="evenodd"/><path d="M603.5 355.5C603.5 352.186 606.186 349.5 609.5 349.5 612.814 349.5 615.5 352.186 615.5 355.5 615.5 358.814 612.814 361.5 609.5 361.5 606.186 361.5 603.5 358.814 603.5 355.5Z" stroke="#44546A" stroke-width="1.33333" stroke-miterlimit="8" fill="#44546A" fill-rule="evenodd"/><path d="M0 0 62.8847 51.1633" stroke="#44546A" stroke-width="0.666667" stroke-miterlimit="8" fill="none" fill-rule="evenodd" transform="matrix(1 0 0 -1 529.5 328.663)"/><path d="M597.5 279.5 609.945 349.533" stroke="#44546A" stroke-width="0.666667" stroke-miterlimit="8" fill="none" fill-rule="evenodd"/><path d="M592.76 269.005 513.5 238.5" stroke="#44546A" stroke-width="0.666667" stroke-miterlimit="8" fill="none" fill-rule="evenodd"/><path d="M0 0 82.9804 27.8276" stroke="#44546A" stroke-width="0.666667" stroke-miterlimit="8" fill="none" fill-rule="evenodd" transform="matrix(1 0 0 -1 513.5 229.328)"/><rect x="615.5" y="182.5" width="28" height="8" stroke="#000000" stroke-width="1.33333" stroke-miterlimit="8" fill="#7F6000"/><path d="M521.042 328.605 503.5 316.5" stroke="#44546A" stroke-width="0.666667" stroke-miterlimit="8" stroke-dasharray="5.33333 2 0.666667 2 0.666667 2" fill="none" fill-rule="evenodd"/><path d="M0 0 9.53291 27.6029" stroke="#44546A" stroke-width="0.666667" stroke-miterlimit="8" stroke-dasharray="5.33333 2 0.666667 2 0.666667 2" fill="none" fill-rule="evenodd" transform="matrix(-1 0 0 1 521.033 337.5)"/><path d="M481.5 217.5 504.348 229.433" stroke="#44546A" stroke-width="0.666667" stroke-miterlimit="8" stroke-dasharray="5.33333 2 0.666667 2 0.666667 2" fill="none" fill-rule="evenodd"/><path d="M0 0 6.39171 24.6327" stroke="#44546A" stroke-width="0.666667" stroke-miterlimit="8" stroke-dasharray="5.33333 2 0.666667 2 0.666667 2" fill="none" fill-rule="evenodd" transform="matrix(-1 0 0 1 611.892 168.5)"/><path d="M616.556 210.513 605.5 201.5" stroke="#44546A" stroke-width="0.666667" stroke-miterlimit="8" stroke-dasharray="5.33333 2 0.666667 2 0.666667 2" fill="none" fill-rule="evenodd"/><path d="M626.595 366.51 615.5 355.5" stroke="#44546A" stroke-width="0.666667" stroke-miterlimit="8" stroke-dasharray="5.33333 2 0.666667 2 0.666667 2" fill="none" fill-rule="evenodd"/><path d="M610.464 378.954 609.5 361.5" stroke="#44546A" stroke-width="0.666667" stroke-miterlimit="8" stroke-dasharray="5.33333 2 0.666667 2 0.666667 2" fill="none" fill-rule="evenodd"/><text font-family="Cambria Math,Cambria Math_MSFontService,sans-serif" font-weight="400" font-size="24" transform="translate(499.129 219)">ğ‘…<tspan font-size="18" x="14.92" y="5">2</tspan><tspan font-size="24" x="120.407" y="-2">ğ‘…</tspan><tspan font-size="18" x="134.773" y="3">1</tspan><tspan font-size="24" x="108.902" y="76">ğ‘…</tspan><tspan font-size="18" x="123.822" y="81">3</tspan><tspan font-size="24" x="82.0686" y="145">ğ‘…</tspan><tspan font-size="18" x="96.9887" y="150">4</tspan><tspan font-size="24" x="16.6848" y="98">ğ‘…</tspan><tspan font-size="18" x="31.6048" y="103">5</tspan></text><rect x="499.5" y="246.5" width="28" height="9" stroke="#000000" stroke-width="1.33333" stroke-miterlimit="8" fill="#FF0000"/><rect x="607.5" y="259.5" width="28" height="9" stroke="#000000" stroke-width="1.33333" stroke-miterlimit="8" fill="#385723"/><rect x="618.5" y="337.5" width="28" height="9" stroke="#000000" stroke-width="1.33333" stroke-miterlimit="8" fill="#7030A0"/><rect x="525.5" y="344.5" width="28" height="9" stroke="#000000" stroke-width="1.33333" stroke-miterlimit="8" fill="#2F5597"/><rect x="751.5" y="244.5" width="43" height="12" stroke="#000000" stroke-width="1.33333" stroke-miterlimit="8" fill="#7F6000"/><rect x="751.5" y="257.5" width="43" height="13" stroke="#000000" stroke-width="1.33333" stroke-miterlimit="8" fill="#FF0000"/><rect x="751.5" y="270.5" width="43" height="13" stroke="#000000" stroke-width="1.33333" stroke-miterlimit="8" fill="#385723"/><rect x="751.5" y="283.5" width="43" height="13" stroke="#000000" stroke-width="1.33333" stroke-miterlimit="8" fill="#7030A0"/><rect x="751.5" y="294.5" width="43" height="12" stroke="#000000" stroke-width="1.33333" stroke-miterlimit="8" fill="#2F5597"/><path d="M0 0 0.000104987 58.5476" stroke="#ADB4BD" stroke-width="1.33333" stroke-miterlimit="8" stroke-dasharray="10.6667 4 1.33333 4 1.33333 4" fill="none" fill-rule="evenodd" transform="matrix(1 0 0 -1 772.5 244.048)"/><path d="M0 0 0.000104987 60.5256" stroke="#ADB4BD" stroke-width="1.33333" stroke-miterlimit="8" stroke-dasharray="10.6667 4 1.33333 4 1.33333 4" fill="none" fill-rule="evenodd" transform="matrix(1 0 0 -1 772.5 367.026)"/><rect x="751.5" y="172.5" width="43" height="13" stroke="#000000" stroke-width="1.33333" stroke-miterlimit="8" fill="#F4B183"/><rect x="751.5" y="367.5" width="43" height="13" stroke="#000000" stroke-width="1.33333" stroke-miterlimit="8" fill="#FFC000"/><text font-family="Calibri,Calibri_MSFontService,sans-serif" font-weight="400" font-size="24" transform="translate(28.8523 435)">Protein structure with <tspan font-size="24" x="-8.21334" y="29">scalar &amp; vector features</tspan><tspan font-size="24" x="645.019" y="-331">Nodes re</tspan>-<tspan font-size="24" x="740.039" y="-331">arranged </tspan><tspan font-size="24" x="670.179" y="-302">in amino</tspan>-acid <tspan font-size="24" x="660.012" y="-273">sequence order</tspan></text><path d="M880.5 138.5C880.5 128.007 889.007 119.5 899.5 119.5L975.5 119.5C985.993 119.5 994.5 128.007 994.5 138.5L994.5 408.5C994.5 418.993 985.993 427.5 975.5 427.5L899.5 427.5C889.007 427.5 880.5 418.993 880.5 408.5Z" stroke="#2F528F" stroke-width="1.33333" stroke-miterlimit="8" fill="#DAE3F3" fill-rule="evenodd"/><text font-family="Calibri,Calibri_MSFontService,sans-serif" font-weight="400" font-size="16" transform="translate(899.951 259)">PT<tspan font-size="16" x="16.0934" y="0">-</tspan><tspan font-size="16" x="20.9267" y="0">Encoder </tspan><tspan font-size="16" x="-4.86664" y="19">(Transformer </tspan><tspan font-size="16" x="8.04669" y="38">Encoder)</tspan></text><path d="M232.5 270 263.5 270 263.5 263.5 276.5 276.5 263.5 289.5 263.5 283 232.5 283Z" stroke="#000000" stroke-width="1.33333" stroke-miterlimit="8" fill-rule="evenodd"/><path d="M420.5 270 451.5 270 451.5 263.5 464.5 276.5 451.5 289.5 451.5 283 420.5 283Z" stroke="#000000" stroke-width="1.33333" stroke-miterlimit="8" fill-rule="evenodd"/><path d="M667.5 270 697.5 270 697.5 263.5 710.5 276.5 697.5 289.5 697.5 283 667.5 283Z" stroke="#000000" stroke-width="1.33333" stroke-miterlimit="8" fill-rule="evenodd"/><path d="M826.5 270 857.5 270 857.5 263.5 870.5 276.5 857.5 289.5 857.5 283 826.5 283Z" stroke="#000000" stroke-width="1.33333" stroke-miterlimit="8" fill-rule="evenodd"/><rect x="1052.5" y="244.5" width="42" height="12" stroke="#000000" stroke-width="1.33333" stroke-miterlimit="8" fill="#FBE5D6"/><rect x="1052.5" y="257.5" width="42" height="13" stroke="#000000" stroke-width="1.33333" stroke-miterlimit="8" fill="#FFFF00"/><rect x="1052.5" y="270.5" width="42" height="13" stroke="#000000" stroke-width="1.33333" stroke-miterlimit="8" fill="#EDEDED"/><rect x="1052.5" y="283.5" width="42" height="13" stroke="#000000" stroke-width="1.33333" stroke-miterlimit="8" fill="#7030A0"/><rect x="1052.5" y="294.5" width="42" height="12" stroke="#000000" stroke-width="1.33333" stroke-miterlimit="8" fill="#7F7F7F"/><path d="M0 0 0.000104987 58.5476" stroke="#ADB4BD" stroke-width="1.33333" stroke-miterlimit="8" stroke-dasharray="10.6667 4 1.33333 4 1.33333 4" fill="none" fill-rule="evenodd" transform="matrix(1 0 0 -1 1073.5 244.048)"/><path d="M0 0 0.000104987 60.5256" stroke="#ADB4BD" stroke-width="1.33333" stroke-miterlimit="8" stroke-dasharray="10.6667 4 1.33333 4 1.33333 4" fill="none" fill-rule="evenodd" transform="matrix(1 0 0 -1 1073.5 367.026)"/><rect x="1052.5" y="172.5" width="42" height="13" stroke="#000000" stroke-width="1.33333" stroke-miterlimit="8" fill="#00B0F0"/><rect x="1052.5" y="367.5" width="42" height="13" stroke="#000000" stroke-width="1.33333" stroke-miterlimit="8" fill="#E2F0D9"/><path d="M1002.5 270 1032.5 270 1032.5 263.5 1045.5 276.5 1032.5 289.5 1032.5 283 1002.5 283Z" stroke="#000000" stroke-width="1.33333" stroke-miterlimit="8" fill-rule="evenodd"/><path d="M1094.5 158.5C1104.99 158.5 1113.5 159.918 1113.5 161.667L1113.5 280.333C1113.5 282.082 1122.01 283.5 1132.5 283.5 1122.01 283.5 1113.5 284.918 1113.5 286.667L1113.5 405.333C1113.5 407.082 1104.99 408.5 1094.5 408.5" stroke="#4472C4" stroke-width="0.666667" stroke-miterlimit="8" fill="none" fill-rule="evenodd"/><text font-family="Calibri,Calibri_MSFontService,sans-serif" font-weight="400" font-size="24" transform="translate(1038.43 434)">Summation</text><path d="M1152.5 262.167C1152.5 256.828 1156.83 252.5 1162.17 252.5L1253.83 252.5C1259.17 252.5 1263.5 256.828 1263.5 262.167L1263.5 300.833C1263.5 306.172 1259.17 310.5 1253.83 310.5L1162.17 310.5C1156.83 310.5 1152.5 306.172 1152.5 300.833Z" stroke="#000000" stroke-width="1.33333" stroke-miterlimit="8" fill="#FFFFFF" fill-rule="evenodd"/><text font-family="Calibri,Calibri_MSFontService,sans-serif" font-weight="400" font-size="16" transform="translate(1174.44 286)">Prediction<tspan font-size="24" x="-670.267" y="149">Output with 3D</tspan><tspan font-size="24" x="-519.1" y="149">-</tspan><tspan font-size="24" x="-678.167" y="178">geometry learned </tspan><tspan font-size="24" x="-626.367" y="207">feature</tspan></text><rect x="34.5001" y="27.5001" width="27" height="8" stroke="#000000" stroke-width="1.33333" stroke-miterlimit="8" fill="#00B0F0"/><rect x="34.5001" y="54.5001" width="27" height="8" stroke="#000000" stroke-width="1.33333" stroke-miterlimit="8" fill="#EDEDED"/><rect x="34.5001" y="62.5001" width="27" height="8" stroke="#000000" stroke-width="1.33333" stroke-miterlimit="8" fill="#92D050"/><rect x="34.5001" y="70.5001" width="27" height="8" stroke="#000000" stroke-width="1.33333" stroke-miterlimit="8" fill="#DEEBF7"/><text font-family="Calibri,Calibri_MSFontService,sans-serif" font-weight="400" font-size="16" transform="translate(67.8326 74)">Vector features<tspan font-size="16" x="0" y="-36">Scalar features</tspan><tspan font-family="Cambria Math,Cambria Math_MSFontService,sans-serif" font-size="16" x="-33.0321" y="35">ğ‘…</tspan><tspan font-family="Cambria Math,Cambria Math_MSFontService,sans-serif" font-size="12" x="-23.1388" y="38">ğ‘–</tspan><tspan font-size="16" x="-17.9055" y="35">: Amino acid </tspan><tspan font-family="Cambria Math,Cambria Math_MSFontService,sans-serif" font-size="16" x="66.5946" y="35">ğ‘–</tspan></text><rect x="19.5001" y="12.5001" width="169" height="114" stroke="#000000" stroke-width="1.33333" stroke-miterlimit="8" stroke-dasharray="5.33333 4 1.33333 4" fill="none"/></g></svg>